<svg version="1.1" id="Capa_1" xmlns="http://www.w3.org/2000/svg" xmlns:xlink="http://www.w3.org/1999/xlink" x="0px" y="0px" width="28px" viewBox="0 0 60 60" style="enable-background:new 0 0 60 60;" xml:space="preserve">
<style type="text/css">
.stPencil{fill:#333;}
</style>
<path class="stPencil" d="M51.8,8.6c-3-3-7.9-3-10.9,0l0,0v0L8,41.5l0,0h0v10.9l10.9,0v0l0,0l32.9-32.9l0,0l0,0l0,0
C54.8,16.5,54.8,11.6,51.8,8.6z M17.6,49.3h-6.5v-6.5l0,0L17.6,49.3L17.6,49.3z M17.6,45l26.6-26.6l2.2,2.2L19.8,47.1L17.6,45z
M15.4,42.8l-2.2-2.2l26.6-26.6l2.2,2.2L15.4,42.8z M48.5,18.4L42,11.9l1.1-1.1c1.8-1.8,4.7-1.8,6.5,0c1.8,1.8,1.8,4.7,0,6.5l0,0
L48.5,18.4z"></path>
</svg>