<svg version="1.1" id="Capa_1" xmlns="http://www.w3.org/2000/svg" xmlns:xlink="http://www.w3.org/1999/xlink" x="0px" y="0px" viewBox="0 0 60 60" style="enable-background:new 0 0 60 60;" xml:space="preserve" width="39px" height="39px">
						<g>
							<g>
								<path class="st0" d="M18.7,17.4l1.2-6l0.6-3H6.9v3h10l-6.5,33.1l-0.6,3h9.1c-1.7,0-3,1.3-3,3c0,1.7,1.3,3,3,3c1.7,0,3-1.3,3-3
									c0-1.7-1.3-3-3-3H43c-1.7,0-3,1.3-3,3c0,1.7,1.3,3,3,3c1.7,0,3-1.3,3-3c0-1.7-1.3-3-3-3h4.5v-3H13.4l1.2-6l34.4-3l3-0.3V17.4H18.7
									z M49,32.5l-33.8,2.9l2.9-15H49V32.5z"></path>
							</g>
						</g>
						</svg>