<svg version="1.1" id="Capa_1" xmlns="http://www.w3.org/2000/svg" xmlns:xlink="http://www.w3.org/1999/xlink" x="0px" y="0px" viewBox="0 0 60 60" xml:space="preserve" class="sizeLogin">
						<path class="st0" d="M35.8,26c2.3-1.8,3.8-4.6,3.8-7.7c0-5.4-4.4-9.7-9.7-9.7c-5.4,0-9.7,4.4-9.7,9.7c0,3.1,1.5,5.9,3.7,7.7
						c-5.5,1.4-9.4,4.6-9.4,8.3V35v1.4v16.7h1.4h1.3h25.1h1.4H45V36.4V35v-0.7C45,30.5,41.2,27.3,35.8,26z M22.8,18.3c0-3.8,3.1-7,7-7
						c3.8,0,7,3.1,7,7s-3.1,7-7,7C25.9,25.2,22.8,22.1,22.8,18.3z M42.3,50.3H17.2V36.4h0v-2.1c0-1.4,1.1-2.8,3.1-4
						c2.4-1.4,5.9-2.3,9.4-2.3c3.5,0,7,0.8,9.4,2.3c2,1.2,3.1,2.6,3.1,4l0,2.1h0V50.3z"></path>
						</svg>